<?xml version="1.0" encoding="UTF-8"?><svg id="Layer_1" xmlns="http://www.w3.org/2000/svg" viewBox="0 0 593.43 124.03"><defs><style>.cls-1{fill:#f50;fill-rule:evenodd;}</style></defs><path class="cls-1" d="M0,63.11C0,23.06,15.55,0,42.45,0c23.17,0,37.16,17.61,38.56,47.06h-26.91c-1.25-14.95-5.29-23.53-11.97-23.53-9.33,0-14.77,13.86-14.77,39.42,0,23.83,5.29,37.71,15.08,37.71,7,0,11.81-8.42,12.9-20.73h-15.86v-23.69h41.36c-.47,21.82-.47,50.02-.16,65.75h-17.1c-.05-.39-.1-.77-.15-1.17h0c-.27-2.15-.54-4.38-.94-6.62-5.45,6.23-12.44,9.67-20.99,9.67C15.08,123.87,0,101.75,0,63.11ZM95.01,1.41h33.73c23.32,0,38.88,14.95,38.88,35.84,0,12.47-6.68,22.44-17.42,27.42,6.38,4.52,10.11,12.15,11.81,22.75l2.34,14.65c1.55,9.51,2.95,15.89,4.51,19.94h-27.21c-1.4-3.43-2.64-9.04-4.04-17.45l-2.02-12.47c-1.86-10.6-4.98-14.95-10.58-14.95h-3.57v44.88h-26.43V1.41ZM125.95,54.39c8.56,0,14.46-6.08,14.46-14.65,0-9.19-5.91-15.43-14.46-15.43h-4.51v30.07h4.51ZM177.97,1.41v86.32c0,21.81,14.16,36.3,35.92,36.3s36.38-14.48,36.38-36.3V1.41h-27.05v87.25c0,7.47-3.41,12-8.86,12-5.92,0-9.49-4.51-9.49-12V1.41h-26.91ZM263.96,1.41h35.77c21.62,0,36.54,13.72,36.54,33.18,0,10.29-5.75,18.85-14.31,23.53,9.49,5.46,15.55,15.59,15.55,27.74,0,22.6-15.08,36.16-36.86,36.16h-36.7V1.41ZM296.15,49.7c7.63,0,12.74-5.3,12.74-13.24s-5.45-13.4-13.06-13.4h-5.29v26.65h5.6ZM296,100.2c8.4,0,13.99-6.23,13.99-15.27s-5.75-15.74-13.99-15.74h-5.45v31.01h5.45ZM393.45,122h26.59V1.41h-26.59v49.09h-17.57V1.41h-26.43v120.6h26.43v-47.84h17.57v47.84ZM433.89,87.73V1.41h26.91v87.25c0,7.48,3.58,12,9.49,12,5.45,0,8.86-4.52,8.86-12V1.41h27.05v86.32c0,21.82-14.62,36.3-36.38,36.3s-35.92-14.49-35.92-36.3ZM555.64,1.41h-35.77v120.61h36.7c21.77,0,36.86-13.56,36.86-36.16,0-12.15-6.06-22.28-15.55-27.74,8.56-4.68,14.31-13.24,14.31-23.53,0-19.47-14.92-33.18-36.54-33.18ZM564.81,36.46c0,7.94-5.13,13.24-12.74,13.24h-5.61v-26.65h5.29c7.61,0,13.06,5.46,13.06,13.4ZM565.9,84.93c0,9.04-5.59,15.27-13.99,15.27h-5.45v-31.01h5.45c8.24,0,13.99,6.71,13.99,15.74Z"/></svg>