<svg xmlns="http://www.w3.org/2000/svg" viewBox="0 0 435.07 70.08"><title>Uber Eats logo</title><path d="M627.46,520.39a15.7,15.7,0,1,0-15.7,15.5,15.47,15.47,0,0,0,15.7-15.5M640.27,495V545.8H627.21v-4.59a25.71,25.71,0,0,1-16.53,5.87c-15.45,0-27.52-11.86-27.52-26.69s12.11-26.69,27.52-26.69a25.71,25.71,0,0,1,16.53,5.87V495Zm43.39,39.25h-9.83c-3,0-4.92-1.28-4.92-4V506.51h14.71V495H668.9V480.56H655.72V495H645.8v11.53h9.92v27c0,6.82,4.92,12.23,13.76,12.23h14.13V534.28Zm29.75,12.81c15.08,0,23.59-7.07,23.59-16.82,0-6.94-5-12.11-15.58-14.34l-11.16-2.23c-6.45-1.16-8.51-2.36-8.51-4.71,0-3.06,3.1-4.92,8.84-4.92,6.24,0,10.78,1.65,12.11,7.27h13.06c-.7-10.58-8.51-17.64-24.3-17.64-13.64,0-23.22,5.54-23.22,16.24,0,7.4,5.29,12.23,16.65,14.59l12.44,2.81c4.92,1,6.24,2.23,6.24,4.21,0,3.18-3.72,5.17-9.71,5.17-7.52,0-11.86-1.65-13.51-7.27H687.17c1.94,10.58,10,17.64,26.24,17.64M530.48,477h49.21v11.74H543.78v16.82h35V517h-35v17h35.91v11.74H530.48Z" transform="translate(-301.93 -477.01)" style="fill:#06c167"/><path d="M507.09,504.48v-9.21h-3.51a13.7,13.7,0,0,0-12.19,6.57v-6.2h-10v50h10.08V517.25c0-7.77,4.79-12.77,11.4-12.77Zm-72.56,11.57c1.82-7.64,8.1-12.77,15.58-12.77a15.78,15.78,0,0,1,15.5,12.77Zm15.78-21.36a26,26,0,0,0-26.2,26c0,14.92,11.78,26.11,27.11,26.11a26.8,26.8,0,0,0,22-10.7l-7.31-5.29a17.66,17.66,0,0,1-14.71,7.36,17,17,0,0,1-16.9-14.21h41.49v-3.22c0-15-10.74-26-25.45-26m-57.68,43.47a17.36,17.36,0,1,1,17.48-17.35,17.43,17.43,0,0,1-17.48,17.35m-27.48,7.56h10v-6.28a25.6,25.6,0,0,0,18.18,7.44c15,0,26.78-11.69,26.78-26.11s-11.78-26.2-26.78-26.2a25.51,25.51,0,0,0-18.1,7.44V477H365.15Zm-35.49-8.06c9.71,0,17.19-7.36,17.19-18.26V477h10.5v68.68H346.93v-6.36a25.59,25.59,0,0,1-18.51,7.56c-15,0-26.49-10.7-26.49-26.9V477h10.54v42.4c0,11.12,7.4,18.26,17.19,18.26" transform="translate(-301.93 -477.01)" style="fill:#142328"/></svg>